<svg width="41" height="40" viewBox="0 0 41 40" fill="none" xmlns="http://www.w3.org/2000/svg">
<g clip-path="url(#clip0_125_166)">
<path d="M36.8814 15.9752C36.6166 7.12165 29.2811 0 20.3011 0C11.321 0 3.98549 7.12165 3.72062 15.9752L2.52759 17.1598V25.1932L3.71249 26.3696V31.8431C3.71249 35.0435 6.33474 37.6471 9.55798 37.6471H11.0257C11.5148 39.0164 12.8319 40 14.3766 40H16.7464C18.2921 40 19.6099 39.015 20.0982 37.6442C20.1659 37.6454 20.2338 37.6471 20.3011 37.6471C26.0232 37.6471 30.8109 33.5987 31.9118 28.2353H35.0106L38.0745 25.1932V17.1598L36.8814 15.9752ZM20.3011 2.35294C27.3339 2.35294 33.1897 7.44933 34.3212 14.1176H31.9118C30.8109 8.7542 26.0232 4.70588 20.3011 4.70588C14.5789 4.70588 9.79117 8.7542 8.69032 14.1176H6.28087C7.41245 7.44933 13.2682 2.35294 20.3011 2.35294ZM29.4803 14.1176C25.65 14.1063 22.9445 14.3379 20.7139 11.1004L19.6307 9.52839L18.6999 11.1938C17.3436 13.6204 15.517 14.1176 13.1917 14.1176H11.1218C12.1768 10.0629 15.8922 7.05882 20.3011 7.05882C24.7099 7.05882 28.4254 10.0629 29.4803 14.1176ZM8.45208 25.8824H6.57307L4.89738 24.2186V18.1344L6.57307 16.4706H8.45208V25.8824ZM6.08228 31.8431V28.2353H8.68803C9.13411 30.4294 10.2014 32.4435 11.7825 34.0611C11.4511 34.4127 11.1911 34.8311 11.0257 35.2941H9.55798C7.64145 35.2941 6.08228 33.746 6.08228 31.8431ZM16.7464 37.6471H14.3766C13.7231 37.6471 13.1917 37.1194 13.1917 36.4706C13.1917 35.8219 13.7231 35.2941 14.3766 35.2941H16.7464C17.3997 35.2941 17.9313 35.8219 17.9313 36.4706C17.9313 37.1194 17.3997 37.6471 16.7464 37.6471ZM29.7802 25.8824C29.7802 31.072 25.5279 35.2941 20.3011 35.2941C20.2331 35.2941 20.1646 35.2928 20.0962 35.2912C19.6063 33.9234 18.29 32.9412 16.7464 32.9412C14.3134 32.9465 14.3522 32.9291 14.0489 32.9568C11.9918 31.1665 10.8219 28.6166 10.8219 25.8824V16.4706H13.1917C15.2887 16.4706 17.8426 16.1273 19.8194 13.7384C22.4278 16.4524 25.6153 16.4706 28.4767 16.4706H29.7802V25.8824ZM35.7047 24.2186L34.029 25.8824H32.15V16.4706H34.029L35.7047 18.1344V24.2186Z" fill="black"/>
</g>
<defs>
<clipPath id="clip0_125_166">
<rect width="40.2865" height="40" fill="white" transform="translate(0.157715)"/>
</clipPath>
</defs>
</svg>
