<svg width="21" height="21" viewBox="0 0 21 21" fill="none" xmlns="http://www.w3.org/2000/svg">
<path id="Vector" d="M19.9208 4.80928C16.4205 4.49344 12.8991 4.33073 9.38823 4.33073C7.30694 4.33073 5.22565 4.42644 3.14436 4.61786L1 4.80928M6.78136 3.8426L7.01261 2.5888C7.1808 1.67955 7.30694 1 9.08339 1H11.8374C13.6139 1 13.7505 1.71783 13.9082 2.59837L14.1395 3.8426M17.6608 7.83374L16.9776 17.4718C16.8619 18.9745 16.7673 20.1421 13.8346 20.1421H7.08619C4.15347 20.1421 4.05886 18.9745 3.94324 17.4718L3.25999 7.83374M8.70497 14.878H12.2053M7.83252 11.0496H13.0883" stroke="#006195" stroke-width="1.5" stroke-linecap="round" stroke-linejoin="round"/>
</svg>
