<svg width="35" height="35" viewBox="0 0 35 35" fill="none" xmlns="http://www.w3.org/2000/svg">
<g id="&#208;&#157;&#208;&#181; &#208;&#178;&#209;&#139;&#208;&#177;&#208;&#184;&#209;&#128;&#208;&#176;&#209;&#130;&#209;&#140;">
<rect id="Rectangle 101" x="1" y="1" width="33" height="33" rx="10" stroke="#908E8E"/>
<rect id="Rectangle 117" x="6" y="6" width="24" height="24" rx="10" fill="#D9D9D9"/>
<path id="Vector" d="M26.7363 25.4538C26.9052 25.6249 27 25.856 27 26.0969C27 26.3377 26.9052 26.5688 26.7363 26.7399C26.5644 26.9068 26.3346 27 26.0954 27C25.8563 27 25.6265 26.9068 25.4546 26.7399L18 19.2486L10.5454 26.7399C10.3735 26.9068 10.1437 27 9.90455 27C9.66539 27 9.43559 26.9068 9.26366 26.7399C9.09476 26.5688 9 26.3377 9 26.0969C9 25.856 9.09476 25.6249 9.26366 25.4538L16.7295 17.9737L9.26366 10.4936C9.12023 10.3183 9.04693 10.0956 9.05802 9.86903C9.06911 9.64243 9.1638 9.42808 9.32367 9.26766C9.48354 9.10724 9.69716 9.01223 9.92298 9.0011C10.1488 8.98997 10.3707 9.06352 10.5454 9.20745L18 16.6988L25.4546 9.20745C25.6293 9.06352 25.8512 8.98997 26.077 9.0011C26.3028 9.01223 26.5165 9.10724 26.6763 9.26766C26.8362 9.42808 26.9309 9.64243 26.942 9.86903C26.9531 10.0956 26.8798 10.3183 26.7363 10.4936L19.2705 17.9737L26.7363 25.4538Z" fill="#908E8E"/>
</g>
</svg>
